<svg width="980" height="551" xmlns="http://www.w3.org/2000/svg" xmlns:xlink="http://www.w3.org/1999/xlink">
<path fill="#ff595e" d="M 678.71 214.24 Q 678.71 214.24 679.96 213.24 681.22 212.25 682.54 211.99 683.86 211.73 684.98 211.60 686.11 211.47 688.24 210.96 690.37 210.45 691.97 210.01 693.57 209.57 694.88 209.26 696.19 208.94 697.33 208.69 698.47 208.44 699.43 208.13 700.40 207.81 701.48 207.54 702.56 207.26 704.28 206.75 705.99 206.23 707.83 205.74 709.66 205.25 711.23 204.87 712.79 204.48 714.26 204.11 715.74 203.74 717.20 203.37 718.65 203.00 720.74 202.58 722.82 202.17 724.78 201.71 726.73 201.24 727.85 201.06 728.97 200.88 730.21 200.67 731.44 200.47 732.53 200.27 733.61 200.07 734.65 199.87 735.69 199.67 736.90 199.45 738.12 199.23 739.20 199.03 740.27 198.83 741.51 198.61 742.74 198.39 743.83 198.19 744.91 197.98 746.15 197.76 747.38 197.55 748.88 197.31 750.38 197.08 751.66 196.97 752.94 196.87 754.97 196.70 757.00 196.53 758.47 196.46 759.94 196.38 761.25 196.23 762.55 196.08 763.96 196.01 765.36 195.94 766.53 195.91 767.70 195.88 768.86 195.75 770.02 195.61 771.82 195.55 773.61 195.48 775.11 195.46 776.62 195.43 778.02 195.42 779.42 195.41 780.89 195.27 782.35 195.13 783.47 195.07 784.58 195.01 785.83 194.98 787.08 194.95 788.37 194.94 789.66 194.93 790.78 194.93 791.91 194.92 792.96 194.92 794.01 194.92 795.04 194.92 796.06 194.91 797.86 194.91 799.65 194.91 801.39 194.91 803.14 194.91 805.09 194.91 807.05 194.91 809.05 194.91 811.05 194.91 812.82 194.91 814.60 194.91 816.69 195.02 818.78 195.13 820.44 195.45 822.10 195.77 823.59 196.13 825.08 196.48 826.55 196.85 828.01 197.21 829.41 197.71 830.82 198.21 832.07 198.73 833.32 199.26 834.46 199.79 835.60 200.32 836.61 200.82 837.62 201.31 838.66 201.97 839.69 202.62 840.81 203.41 841.94 204.20 842.71 204.87 843.49 205.53 844.40 206.42 845.30 207.30 846.04 208.15 846.78 209.00 847.36 209.87 847.93 210.74 848.33 211.75 848.73 212.76 848.76 213.80 848.79 214.84 848.79 215.95 848.79 217.07 848.64 218.28 848.48 219.49 847.94 220.35 847.41 221.21 846.75 222.00 846.09 222.79 845.26 223.44 844.43 224.09 843.40 224.75 842.36 225.41 841.30 226.18 840.23 226.95 839.32 227.56 838.40 228.18 837.38 228.78 836.35 229.39 835.23 230.21 834.11 231.02 833.26 231.60 832.40 232.18 831.27 232.86 830.15 233.54 829.10 234.11 828.05 234.68 826.76 235.31 825.48 235.93 823.84 236.69 822.21 237.44 820.04 238.28 817.86 239.11 816.63 239.64 815.40 240.18 814.03 240.69 812.67 241.19 811.65 241.52 810.63 241.85 808.51 242.77 806.38 243.69 805.10 244.14 803.81 244.60 802.71 245.01 801.62 245.42 799.60 246.12 797.58 246.81 796.17 247.33 794.77 247.84 793.39 248.32 792.00 248.80 790.58 249.15 789.15 249.51 787.72 250.03 786.28 250.55 785.18 250.90 784.07 251.25 782.87 251.64 781.66 252.04 780.51 252.34 779.35 252.64 778.38 252.97 777.40 253.30 776.10 253.60 774.81 253.90 773.70 254.14 772.60 254.37 771.55 254.59 770.50 254.80 769.28 255.02 768.05 255.25 766.56 255.48 765.06 255.71 764.05 255.91 763.04 256.10 761.36 256.35 759.68 256.59 758.24 256.81 756.80 257.03 755.62 257.24 754.45 257.45 752.38 257.55 750.31 257.66 748.78 257.82 747.25 257.97 745.96 258.05 744.66 258.12 742.65 258.15 740.64 258.18 738.84 258.20 737.03 258.21 735.85 258.21 734.66 258.22 732.72 258.22 730.78 258.22 728.99 258.23 727.21 258.23 725.49 258.23 723.76 258.23 722.07 258.23 720.38 258.23 718.27 258.23 716.17 258.23 714.02 258.08 711.87 257.92 710.51 257.75 709.15 257.57 707.89 257.25 706.63 256.92 705.60 256.68 704.57 256.44 703.46 256.08 702.35 255.73 701.30 255.34 700.25 254.95 699.14 254.40 698.03 253.85 697.06 253.43 696.10 253.00 695.10 252.40 694.10 251.81 693.14 251.23 692.18 250.66 690.51 249.64 688.83 248.62 687.36 247.63 685.89 246.64 684.67 245.51 683.44 244.38 682.31 243.03 681.18 241.68 680.38 240.39 679.59 239.10 679.05 237.66 678.51 236.22 678.33 234.58 678.15 232.93 678.12 231.64 678.10 230.35 678.09 228.35 678.09 226.34 678.09 225.03 678.09 223.72 678.09 222.40 678.09 221.09 678.09 218.93 678.09 216.78 678.09 215.70 678.09 214.62 678.09 213.59 678.09 212.55 678.09 210.91 678.09 209.26 678.09 208.10 678.09 206.95 678.09 205.90 678.10 204.85 680.59 203.74 683.08 202.63 683.08 202.63 683.08 202.63 683.08 202.64 683.08 202.64 682.58 203.77 682.08 204.89 682.08 205.92 682.09 206.95 682.09 208.10 682.09 209.26 682.09 210.91 682.09 212.55 682.09 213.59 682.09 214.62 682.09 215.70 682.09 216.78 682.09 218.93 682.09 221.09 682.09 222.40 682.09 223.72 682.09 225.03 682.09 226.34 682.09 228.33 682.10 230.31 682.12 231.52 682.14 232.72 682.21 233.81 682.28 234.90 682.68 236.02 683.07 237.14 683.77 238.28 684.48 239.42 685.34 240.45 686.21 241.49 687.29 242.49 688.36 243.50 689.70 244.39 691.05 245.29 692.65 246.26 694.25 247.23 695.99 248.29 697.72 249.34 698.77 249.81 699.82 250.28 700.73 250.74 701.63 251.20 703.56 251.87 705.48 252.55 706.57 252.80 707.66 253.05 708.66 253.33 709.67 253.61 710.91 253.77 712.16 253.93 714.16 254.08 716.17 254.23 718.28 254.23 720.38 254.23 722.07 254.23 723.76 254.23 725.48 254.23 727.20 254.23 728.99 254.23 730.77 254.22 732.71 254.22 734.64 254.22 735.82 254.21 737.00 254.21 738.79 254.20 740.58 254.18 742.51 254.16 744.44 254.13 745.64 254.06 746.84 254.00 748.49 253.83 750.13 253.66 751.94 253.58 753.76 253.51 754.97 253.29 756.19 253.08 757.65 252.85 759.12 252.63 760.70 252.40 762.28 252.18 763.36 251.97 764.45 251.76 765.89 251.53 767.34 251.31 768.52 251.10 769.70 250.88 770.73 250.67 771.77 250.46 772.84 250.23 773.92 250.00 775.02 249.76 776.13 249.51 777.24 249.14 778.35 248.77 779.38 248.50 780.42 248.23 781.64 247.83 782.86 247.43 783.90 247.11 784.93 246.78 786.56 246.20 788.20 245.62 789.45 245.32 790.69 245.02 792.04 244.55 793.39 244.08 794.84 243.56 796.28 243.03 798.24 242.35 800.21 241.68 801.34 241.25 802.47 240.83 803.71 240.39 804.94 239.95 806.05 239.53 807.16 239.11 809.22 238.28 811.27 237.45 812.55 236.97 813.82 236.50 815.21 235.91 816.60 235.31 817.79 234.92 818.98 234.54 820.63 233.80 822.29 233.05 823.69 232.36 825.09 231.67 826.10 231.20 827.11 230.73 828.36 230.03 829.60 229.33 830.84 228.46 832.07 227.58 832.94 226.94 833.81 226.30 834.92 225.64 836.02 224.97 837.10 224.25 838.17 223.52 839.00 222.93 839.83 222.33 840.82 221.75 841.81 221.17 842.70 220.42 843.58 219.67 844.19 218.49 844.79 217.32 844.79 216.26 844.79 215.19 844.74 214.15 844.70 213.10 844.12 212.17 843.54 211.24 842.44 210.13 841.35 209.02 840.54 208.28 839.73 207.54 838.63 206.76 837.52 205.98 836.59 205.39 835.67 204.80 834.68 204.32 833.70 203.84 832.68 203.37 831.66 202.90 830.47 202.40 829.27 201.90 828.16 201.49 827.04 201.09 825.59 200.73 824.14 200.37 822.69 200.02 821.25 199.68 819.84 199.40 818.42 199.11 816.51 199.01 814.60 198.91 812.82 198.91 811.05 198.91 809.05 198.91 807.05 198.91 805.09 198.91 803.14 198.91 801.39 198.91 799.65 198.91 797.86 198.91 796.07 198.91 795.05 198.92 794.02 198.92 792.97 198.92 791.92 198.92 790.81 198.93 789.69 198.93 788.43 198.94 787.17 198.95 785.99 198.98 784.81 199.00 783.76 199.06 782.72 199.12 781.08 199.26 779.45 199.41 778.07 199.42 776.69 199.43 775.22 199.46 773.75 199.48 772.11 199.53 770.47 199.59 769.14 199.73 767.80 199.88 766.68 199.90 765.56 199.93 764.28 199.99 763.01 200.06 761.57 200.22 760.14 200.38 758.73 200.45 757.33 200.52 755.30 200.69 753.26 200.86 752.13 200.94 751.00 201.03 749.54 201.26 748.07 201.49 746.86 201.70 745.65 201.91 744.54 202.12 743.44 202.33 742.23 202.54 741.02 202.75 739.92 202.96 738.82 203.17 737.63 203.38 736.45 203.59 735.39 203.80 734.34 204.00 733.22 204.21 732.10 204.41 730.86 204.62 729.62 204.83 727.75 205.12 725.88 205.41 724.72 205.75 723.55 206.10 721.59 206.49 719.63 206.88 718.17 207.25 716.71 207.62 715.24 207.99 713.76 208.36 712.17 208.75 710.59 209.14 708.94 209.58 707.29 210.01 706.27 210.36 705.25 210.71 703.43 211.17 701.61 211.62 700.47 211.98 699.33 212.34 698.23 212.59 697.12 212.83 695.87 213.13 694.62 213.43 692.89 213.90 691.17 214.37 690.04 214.60 688.91 214.83 686.75 215.24 684.58 215.66 682.91 215.95 681.23 216.25 679.97 215.25 678.71 214.26 678.71 214.25 Z" data-drauu_index="1"></path><path fill="#ff595e" d="M 575.76 87.95 Q 575.76 87.95 575.76 87.95 575.76 87.96 575.75 87.96 575.75 87.96 575.76 87.96 Z" data-drauu_index="0"></path>
</svg>