<svg width="980" height="551" xmlns="http://www.w3.org/2000/svg" xmlns:xlink="http://www.w3.org/1999/xlink">
<path fill="#ff595e" d="M 67.31 266.85 Q 67.31 266.85 68.68 265.87 70.04 264.89 71.58 264.87 73.12 264.86 75.21 264.86 77.30 264.86 80.18 264.86 83.06 264.86 86.59 264.86 90.12 264.86 94.27 264.86 98.41 264.86 102.82 264.86 107.22 264.86 112.09 264.86 116.97 264.86 122.38 264.63 127.79 264.41 133.51 264.31 139.23 264.21 145.04 264.17 150.86 264.13 156.71 264.11 162.56 264.10 167.04 264.09 171.52 264.08 176.38 263.86 181.24 263.65 186.35 263.55 191.46 263.46 196.24 263.22 201.01 262.98 205.38 262.87 209.76 262.77 213.93 262.72 218.10 262.68 222.18 262.66 226.26 262.64 229.99 262.63 233.72 262.63 237.00 262.62 240.29 262.62 243.39 262.62 246.49 262.62 249.51 262.62 252.53 262.62 255.52 262.62 258.50 262.62 261.96 262.62 265.42 262.61 268.08 262.61 270.74 262.61 272.83 262.61 274.92 262.61 276.77 262.61 278.62 262.61 279.98 262.61 281.34 262.61 282.50 262.61 283.66 262.61 285.37 262.61 287.08 262.61 288.45 262.61 289.81 262.61 290.86 262.61 291.91 262.61 293.20 262.61 294.49 262.61 295.95 262.61 297.40 262.61 298.57 262.61 299.74 262.61 300.76 262.61 301.77 262.61 302.96 262.61 304.15 262.61 304.79 262.61 305.43 262.61 305.67 262.64 305.91 262.67 306.14 262.76 306.36 262.84 306.56 262.98 306.76 263.12 306.92 263.30 307.08 263.48 307.19 263.69 307.30 263.91 307.36 264.14 307.42 264.37 307.42 264.61 307.42 264.86 307.36 265.09 307.30 265.32 307.19 265.54 307.08 265.75 306.92 265.93 306.76 266.11 306.56 266.25 306.36 266.39 306.14 266.47 305.91 266.56 305.67 266.59 305.43 266.61 304.59 265.93 303.75 265.24 304.88 265.46 306.01 265.68 307.04 265.69 308.08 265.69 308.63 266.74 309.19 267.79 309.38 268.81 309.58 269.82 309.58 270.92 309.58 272.02 309.58 273.10 309.58 274.18 309.01 275.36 308.45 276.54 307.56 277.11 306.67 277.69 305.85 278.54 305.03 279.40 304.33 280.21 303.63 281.03 302.88 281.77 302.13 282.51 301.05 283.40 299.97 284.29 299.06 285.00 298.15 285.71 297.10 286.22 296.04 286.74 295.15 287.28 294.26 287.82 293.18 288.60 292.10 289.38 291.42 290.17 290.73 290.96 289.54 291.92 288.35 292.88 286.50 293.43 284.65 293.98 282.48 294.87 280.30 295.76 278.21 296.57 276.11 297.37 274.39 298.01 272.67 298.65 271.64 299.00 270.61 299.35 269.59 299.56 268.57 299.77 267.45 299.78 266.33 299.79 264.97 299.79 263.61 299.79 262.31 299.79 261.01 299.79 259.87 299.79 258.72 299.79 257.57 299.79 256.43 299.79 255.36 299.79 254.29 299.79 253.27 299.79 252.25 299.79 251.20 299.79 250.16 299.79 249.06 299.79 247.97 299.79 246.77 299.79 245.57 299.79 244.30 299.79 243.02 299.79 241.79 299.79 240.56 299.79 239.54 299.79 238.51 299.79 237.38 299.79 236.25 299.79 235.02 299.79 233.78 299.79 232.51 299.79 231.25 299.79 230.14 299.79 229.04 299.79 227.78 299.79 226.51 299.79 224.94 299.79 223.36 299.79 222.19 299.79 221.02 299.79 219.81 299.79 218.60 299.79 217.52 299.79 216.44 299.79 215.41 299.87 214.38 299.95 213.03 300.02 211.68 300.09 210.45 300.19 209.21 300.29 207.65 300.37 206.08 300.45 204.74 300.46 203.41 300.47 202.16 300.47 200.92 300.48 199.62 300.62 198.32 300.77 197.03 300.80 195.73 300.83 194.30 300.83 192.87 300.84 191.26 301.00 189.64 301.16 188.33 301.29 187.03 301.41 185.19 301.64 183.35 301.86 181.82 302.05 180.30 302.24 178.82 302.43 177.35 302.61 176.09 302.77 174.82 302.94 173.48 302.97 172.13 303.01 170.89 303.01 169.65 303.02 168.28 303.17 166.91 303.32 165.56 303.46 164.20 303.60 163.12 303.70 162.05 303.81 160.55 303.88 159.04 303.96 157.94 304.06 156.83 304.17 155.27 304.25 153.72 304.32 151.83 304.33 149.93 304.35 148.36 304.35 146.78 304.35 145.50 304.35 144.21 304.35 142.98 304.35 141.75 304.35 140.39 304.35 139.03 304.35 137.59 304.35 136.15 304.35 134.69 304.35 133.24 304.35 131.78 304.35 130.32 304.35 129.06 304.35 127.80 304.35 126.51 304.35 125.23 304.35 124.05 304.35 122.88 304.35 121.81 304.35 120.73 304.35 119.24 304.35 117.75 304.35 116.18 304.35 114.61 304.35 113.47 304.35 112.34 304.35 111.33 304.35 110.32 304.35 108.84 304.35 107.36 304.35 105.89 304.35 104.42 304.35 102.95 304.35 101.48 304.35 100.19 304.35 98.91 304.35 97.64 304.35 96.37 304.35 94.91 304.35 93.45 304.35 92.29 304.35 91.12 304.35 89.66 304.24 88.21 304.13 86.79 303.81 85.37 303.49 83.89 303.21 82.41 302.93 81.30 302.77 80.18 302.61 79.12 302.33 78.05 302.04 76.80 301.71 75.54 301.37 74.51 301.20 73.48 301.02 72.40 300.73 71.33 300.43 70.15 299.97 68.96 299.50 68.10 298.88 67.23 298.26 66.51 297.39 65.79 296.52 65.23 295.66 64.67 294.80 64.22 293.61 63.78 292.43 63.50 291.23 63.22 290.04 63.06 288.83 62.89 287.63 62.88 286.61 62.87 285.59 62.87 284.42 62.87 283.26 62.87 282.24 62.87 281.22 63.01 280.08 63.15 278.95 63.57 277.60 63.99 276.25 64.37 275.15 64.75 274.05 65.34 272.91 65.92 271.77 66.60 270.90 67.27 270.03 69.66 269.70 72.04 269.36 72.04 269.36 72.05 269.36 72.05 269.36 72.05 269.36 72.05 269.36 72.05 269.36 72.05 269.36 72.05 269.36 72.05 269.36 72.06 269.36 72.06 269.36 72.06 269.36 72.06 269.36 72.06 269.36 72.06 269.36 72.06 269.36 72.06 269.37 72.06 269.37 72.06 269.37 72.06 269.37 72.06 269.37 72.06 269.37 72.06 269.37 72.06 269.37 72.06 269.37 72.06 269.38 72.05 269.37 72.05 269.37 72.05 269.36 72.04 269.36 72.04 269.36 72.05 269.36 72.05 269.36 72.05 269.36 72.05 269.36 72.05 269.36 72.05 269.36 72.05 269.36 72.05 269.36 72.06 269.36 72.06 269.36 72.06 269.36 72.06 269.36 72.06 269.36 72.06 269.36 72.06 269.36 72.06 269.37 72.06 269.37 72.06 269.37 72.06 269.37 72.06 269.37 72.06 269.37 72.06 269.37 72.06 269.37 72.06 269.37 72.06 269.38 70.96 271.24 69.86 273.10 69.24 273.94 68.61 274.78 68.23 275.85 67.85 276.92 67.57 278.06 67.30 279.19 67.08 280.20 66.87 281.22 66.87 282.24 66.87 283.26 66.87 284.42 66.87 285.57 66.89 286.81 66.90 288.06 67.12 289.42 67.34 290.78 67.68 291.77 68.03 292.77 68.60 293.68 69.17 294.60 69.93 295.29 70.68 295.97 71.77 296.37 72.87 296.77 74.11 297.06 75.36 297.36 76.83 297.64 78.30 297.92 79.44 298.28 80.59 298.63 82.23 298.93 83.88 299.23 85.38 299.52 86.89 299.82 87.93 300.01 88.98 300.20 90.05 300.28 91.12 300.35 92.29 300.35 93.45 300.35 94.91 300.35 96.37 300.35 97.64 300.35 98.91 300.35 100.19 300.35 101.48 300.35 102.95 300.35 104.42 300.35 105.89 300.35 107.36 300.35 108.84 300.35 110.32 300.35 111.33 300.35 112.34 300.35 113.47 300.35 114.61 300.35 116.18 300.35 117.75 300.35 119.24 300.35 120.73 300.35 121.81 300.35 122.88 300.35 124.05 300.35 125.23 300.35 126.51 300.35 127.80 300.35 129.06 300.35 130.32 300.35 131.78 300.35 133.24 300.35 134.69 300.35 136.15 300.35 137.59 300.35 139.03 300.35 140.39 300.35 141.75 300.35 142.98 300.35 144.21 300.35 145.49 300.35 146.78 300.35 148.35 300.35 149.92 300.35 151.77 300.34 153.61 300.32 154.90 300.27 156.19 300.22 157.56 300.09 158.94 299.96 160.14 299.92 161.33 299.87 162.60 299.74 163.86 299.61 164.88 299.47 165.90 299.33 167.07 299.28 168.24 299.23 169.50 299.12 170.76 299.01 171.98 299.00 173.20 298.99 174.42 298.94 175.63 298.88 176.98 298.71 178.33 298.53 179.82 298.35 181.30 298.16 182.93 297.96 184.55 297.76 185.61 297.59 186.66 297.43 188.75 297.26 190.84 297.09 191.85 296.96 192.86 296.84 194.27 296.83 195.68 296.83 196.88 296.80 198.07 296.78 199.49 296.63 200.91 296.48 202.15 296.47 203.38 296.47 204.68 296.46 205.98 296.45 207.29 296.39 208.61 296.34 210.08 296.21 211.56 296.09 212.64 296.05 213.72 296.00 215.08 295.90 216.44 295.79 217.52 295.79 218.60 295.79 219.81 295.79 221.02 295.79 222.19 295.79 223.36 295.79 224.94 295.79 226.51 295.79 227.78 295.79 229.04 295.79 230.14 295.79 231.25 295.79 232.51 295.79 233.78 295.79 235.02 295.79 236.25 295.79 237.38 295.79 238.51 295.79 239.54 295.79 240.56 295.79 241.79 295.79 243.02 295.79 244.30 295.79 245.57 295.79 246.77 295.79 247.97 295.79 249.06 295.79 250.16 295.79 251.20 295.79 252.25 295.79 253.27 295.79 254.29 295.79 255.36 295.79 256.43 295.79 257.57 295.79 258.72 295.79 259.87 295.79 261.01 295.79 262.31 295.79 263.61 295.79 264.97 295.79 266.33 295.79 267.58 295.80 268.84 295.81 270.05 295.36 271.25 294.91 273.04 294.25 274.83 293.59 275.85 293.24 276.87 292.90 277.86 292.47 278.84 292.04 280.05 291.56 281.26 291.09 282.25 290.66 283.24 290.24 285.04 289.83 286.83 289.43 287.62 288.53 288.42 287.62 289.21 286.80 290.01 285.99 290.91 285.33 291.80 284.67 292.80 284.07 293.80 283.46 294.86 282.93 295.92 282.39 296.83 281.72 297.74 281.04 298.53 280.35 299.32 279.66 300.06 278.93 300.79 278.20 301.51 277.38 302.22 276.55 303.07 275.86 303.91 275.18 304.74 274.30 305.58 273.43 305.58 272.37 305.58 271.31 305.57 270.28 305.55 269.25 304.99 268.39 304.43 267.52 303.84 266.71 303.25 265.89 303.13 264.81 303.01 263.73 304.22 263.17 305.43 262.61 305.67 262.64 305.91 262.67 306.14 262.76 306.36 262.84 306.56 262.98 306.76 263.12 306.92 263.30 307.08 263.48 307.19 263.69 307.30 263.91 307.36 264.14 307.42 264.37 307.42 264.61 307.42 264.86 307.36 265.09 307.30 265.32 307.19 265.54 307.08 265.75 306.92 265.93 306.76 266.11 306.56 266.25 306.36 266.39 306.14 266.47 305.91 266.56 305.67 266.59 305.43 266.61 304.79 266.61 304.15 266.61 302.96 266.61 301.77 266.61 300.76 266.61 299.74 266.61 298.57 266.61 297.40 266.61 295.95 266.61 294.49 266.61 293.20 266.61 291.91 266.61 290.86 266.61 289.81 266.61 288.45 266.61 287.08 266.61 285.37 266.61 283.66 266.61 282.50 266.61 281.34 266.61 279.98 266.61 278.62 266.61 276.77 266.61 274.92 266.61 272.83 266.61 270.74 266.61 268.08 266.61 265.42 266.61 261.96 266.62 258.50 266.62 255.52 266.62 252.53 266.62 249.51 266.62 246.49 266.62 243.39 266.62 240.30 266.62 237.01 266.62 233.73 266.63 230.00 266.63 226.28 266.64 222.21 266.66 218.14 266.68 214.00 266.72 209.86 266.77 205.53 266.87 201.21 266.97 196.37 267.22 191.54 267.46 186.48 267.55 181.42 267.64 176.47 267.86 171.53 268.08 167.05 268.09 162.57 268.10 156.73 268.11 150.88 268.13 145.09 268.17 139.30 268.21 133.62 268.31 127.95 268.40 122.46 268.63 116.97 268.86 112.09 268.86 107.22 268.86 102.82 268.86 98.41 268.86 94.27 268.86 90.12 268.86 86.59 268.86 83.06 268.86 80.18 268.86 77.30 268.86 75.21 268.86 73.12 268.86 71.58 268.84 70.04 268.82 68.68 267.84 67.31 266.87 67.31 266.86 Z" data-drauu_index="9"></path><path fill="#ff595e" d="M 65.69 393.17 Q 65.69 393.17 68.89 392.18 72.10 391.18 75.76 391.18 79.43 391.18 83.62 391.18 87.82 391.18 92.99 391.18 98.16 391.18 103.73 391.18 109.31 391.18 115.89 391.18 122.46 391.18 131.04 391.18 139.61 391.18 148.87 391.18 158.13 391.18 163.77 391.18 169.41 391.18 175.11 390.73 180.81 390.28 185.95 390.09 191.08 389.90 196.27 389.81 201.46 389.73 205.93 389.51 210.40 389.28 214.33 389.18 218.27 389.08 220.90 389.04 223.53 389.00 226.09 388.98 228.64 388.97 231.16 388.96 233.68 388.95 236.75 388.95 239.82 388.94 242.08 388.94 244.34 388.94 245.72 388.94 247.10 388.94 249.39 388.94 251.68 388.94 253.07 388.94 254.46 388.94 256.02 388.94 257.57 388.94 258.99 388.94 260.41 388.94 262.52 388.94 264.64 388.94 265.97 388.72 267.29 388.50 268.76 388.39 270.23 388.29 271.43 388.24 272.63 388.20 273.72 388.18 274.82 388.16 276.24 388.15 277.67 388.15 278.94 388.02 280.21 387.90 281.60 387.84 282.99 387.78 284.00 387.75 285.00 387.73 286.79 387.56 288.57 387.40 289.81 387.32 291.05 387.25 292.25 387.10 293.46 386.95 294.64 386.87 295.82 386.80 296.99 386.65 298.16 386.50 299.87 386.29 301.58 386.07 302.85 385.87 304.12 385.67 305.64 385.44 307.17 385.21 308.78 384.98 310.38 384.74 311.81 384.52 313.25 384.29 314.91 384.18 316.58 384.08 317.76 383.93 318.94 383.78 320.30 383.70 321.66 383.63 322.90 383.48 324.14 383.33 325.73 383.26 327.32 383.19 328.75 383.16 330.18 383.13 331.89 382.97 333.60 382.81 335.37 382.74 337.14 382.67 338.77 382.51 340.40 382.34 343.29 382.12 346.18 381.90 348.62 381.81 351.06 381.71 352.52 381.67 353.97 381.63 355.78 381.61 357.60 381.59 359.33 381.59 361.06 381.58 362.56 381.58 364.05 381.57 365.65 381.57 367.24 381.57 369.11 381.57 370.97 381.57 372.18 381.57 373.39 381.57 375.34 381.57 377.29 381.57 378.53 381.57 379.78 381.57 380.89 381.57 381.99 381.57 383.22 381.57 384.45 381.57 385.55 381.57 386.65 381.57 387.69 381.57 388.73 381.57 389.76 381.57 390.78 381.57 392.13 381.49 393.48 381.40 394.80 381.34 396.13 381.27 397.52 381.26 398.92 381.25 400.39 381.25 401.87 381.24 403.62 381.24 405.37 381.24 407.10 381.24 408.84 381.24 410.02 381.24 411.20 381.24 412.93 381.24 414.66 381.24 416.16 381.24 417.67 381.24 418.69 381.37 419.71 381.49 421.30 381.67 422.89 381.85 424.04 381.91 425.19 381.97 426.32 382.12 427.46 382.27 428.47 382.43 429.48 382.59 430.74 382.88 432.00 383.17 433.40 383.52 434.80 383.87 436.14 384.22 437.48 384.58 438.72 384.93 439.96 385.28 441.18 385.62 442.40 385.96 443.97 386.46 445.53 386.96 446.58 387.48 447.64 388.01 449.68 389.16 451.73 390.31 452.87 391.17 454.01 392.02 454.91 392.69 455.80 393.37 457.21 394.42 458.62 395.48 459.59 396.39 460.56 397.30 461.47 398.35 462.39 399.39 463.05 400.36 463.71 401.32 464.37 402.49 465.03 403.65 465.59 404.88 466.15 406.12 466.38 407.33 466.61 408.55 466.62 409.60 466.62 410.66 466.13 411.91 465.63 413.17 464.04 413.86 462.45 414.54 461.36 415.42 460.27 416.30 458.62 417.48 456.98 418.67 454.93 420.18 452.88 421.70 450.07 423.70 447.26 425.70 444.52 427.58 441.78 429.46 438.78 431.36 435.78 433.26 432.65 435.00 429.53 436.73 426.69 438.31 423.85 439.88 421.16 441.21 418.48 442.54 415.80 443.47 413.12 444.39 410.54 445.10 407.96 445.80 405.15 446.45 402.33 447.09 399.66 447.53 396.98 447.97 394.13 448.33 391.28 448.68 388.30 448.84 385.33 448.99 382.64 449.06 379.94 449.12 377.09 449.15 374.24 449.18 371.60 449.19 368.95 449.20 366.39 449.21 363.83 449.21 361.31 449.21 358.79 449.22 356.28 449.22 353.78 449.22 351.28 449.22 348.78 449.22 344.58 449.22 340.38 449.22 337.16 449.22 333.94 449.22 331.99 449.22 330.05 449.22 328.03 449.22 326.02 449.22 324.20 449.22 322.38 449.22 320.65 449.22 318.91 449.22 317.41 449.22 315.92 449.22 314.52 449.22 313.13 449.22 311.66 449.35 310.19 449.49 309.08 449.55 307.96 449.61 305.61 449.94 303.25 450.26 301.82 450.36 300.39 450.45 299.37 450.48 298.34 450.52 297.24 450.65 296.14 450.79 294.81 450.86 293.48 450.92 292.16 450.95 290.83 450.97 289.79 451.09 288.76 451.21 287.45 451.27 286.14 451.33 285.02 451.35 283.89 451.38 282.83 451.39 281.77 451.40 279.78 451.57 277.78 451.73 276.56 451.76 275.34 451.78 273.06 451.96 270.78 452.13 269.77 452.26 268.75 452.39 267.45 452.46 266.15 452.52 264.26 452.55 262.37 452.58 261.08 452.70 259.79 452.82 258.58 452.88 257.38 452.93 256.28 452.96 255.19 452.98 253.17 453.16 251.15 453.33 249.31 453.53 247.47 453.72 245.84 454.01 244.21 454.30 243.16 454.38 242.12 454.47 240.43 454.76 238.75 455.06 237.70 455.15 236.65 455.23 234.60 455.55 232.54 455.87 231.14 455.97 229.74 456.06 228.39 456.09 227.04 456.13 224.90 456.30 222.76 456.47 221.47 456.49 220.19 456.52 218.88 456.52 217.58 456.53 216.36 456.66 215.14 456.78 213.96 456.84 212.77 456.90 211.03 456.94 209.29 456.97 208.27 456.98 207.25 456.98 205.84 456.98 204.42 456.98 202.75 456.98 201.07 456.98 199.35 456.99 197.62 456.99 196.27 456.99 194.92 456.99 193.47 457.12 192.02 457.25 189.18 457.31 186.33 457.38 184.79 457.50 183.25 457.63 181.77 457.69 180.29 457.74 178.90 457.77 177.51 457.79 176.43 457.91 175.36 458.03 173.57 458.11 171.77 458.19 170.53 458.34 169.30 458.48 168.23 458.51 167.16 458.54 166.14 458.66 165.12 458.79 163.53 458.91 161.94 459.03 160.74 459.16 159.54 459.29 158.42 459.33 157.30 459.37 156.15 459.62 155.00 459.87 153.90 460.11 152.80 460.34 151.58 460.61 150.36 460.87 149.28 461.16 148.21 461.45 147.18 461.87 146.14 462.29 145.16 462.58 144.18 462.86 143.18 463.15 142.18 463.44 141.04 463.75 139.90 464.06 138.89 464.37 137.87 464.67 136.77 464.85 135.66 465.03 134.47 465.18 133.27 465.33 132.12 465.47 130.97 465.62 129.57 465.88 128.17 466.15 126.63 466.34 125.10 466.53 123.56 466.70 122.03 466.87 120.98 467.02 119.92 467.17 118.77 467.34 117.62 467.51 116.49 467.59 115.36 467.67 114.17 467.71 112.98 467.74 111.77 467.75 110.57 467.77 108.96 467.77 107.35 467.78 105.99 467.93 104.62 468.08 103.11 468.11 101.61 468.14 100.14 468.14 98.68 468.15 97.12 468.24 95.57 468.34 93.96 468.41 92.36 468.48 90.87 468.50 89.38 468.51 87.92 468.51 86.46 468.51 84.91 468.51 83.36 468.51 82.22 468.51 81.07 468.51 79.79 468.51 78.51 468.51 77.42 468.51 76.34 468.51 75.21 468.40 74.08 468.29 72.44 468.13 70.79 467.98 69.74 467.81 68.68 467.65 67.51 467.46 66.33 467.27 65.33 466.98 64.33 466.70 63.23 466.39 62.13 466.07 61.20 465.57 60.28 465.06 59.45 464.48 58.61 463.90 57.65 463.04 56.69 462.17 55.74 461.13 54.78 460.09 53.98 459.00 53.18 457.90 52.66 456.78 52.14 455.66 51.51 454.18 50.89 452.70 50.30 451.00 49.70 449.30 49.11 447.57 48.53 445.84 48.29 444.86 48.05 443.88 47.83 442.89 47.62 441.90 47.26 440.49 46.90 439.08 46.61 437.51 46.33 435.95 46.14 434.67 45.96 433.39 45.92 432.04 45.89 430.70 45.88 429.17 45.88 427.64 45.88 426.44 45.87 425.24 45.87 424.22 45.87 423.20 46.16 421.57 46.44 419.93 47.10 418.35 47.75 416.77 48.47 415.30 49.18 413.83 49.77 412.56 50.35 411.30 51.02 410.12 51.69 408.94 52.50 407.62 53.32 406.30 53.96 405.33 54.60 404.35 55.28 403.41 55.97 402.47 56.60 401.66 57.22 400.85 57.99 399.91 58.76 398.96 59.80 397.90 60.83 396.84 61.85 396.07 62.86 395.30 63.87 394.82 64.88 394.35 66.21 394.03 67.53 393.71 68.76 393.32 70.00 392.93 71.71 393.54 73.42 394.16 73.41 394.16 73.41 394.16 73.40 394.16 73.40 394.16 72.23 395.40 71.06 396.65 70.07 397.01 69.07 397.37 67.99 397.64 66.90 397.92 65.80 398.38 64.71 398.84 63.74 399.70 62.78 400.56 61.99 401.38 61.20 402.20 60.49 403.11 59.78 404.01 58.86 405.28 57.94 406.56 57.31 407.52 56.67 408.48 56.12 409.34 55.57 410.20 55.05 411.08 54.53 411.96 54.01 413.05 53.49 414.14 52.78 415.58 52.07 417.03 51.43 418.39 50.79 419.75 50.43 420.83 50.08 421.91 49.98 423.06 49.87 424.21 49.87 425.28 49.87 426.35 49.88 427.83 49.88 429.32 49.89 430.54 49.91 431.76 49.96 432.95 50.02 434.15 50.21 435.40 50.40 436.66 50.77 438.01 51.13 439.35 51.53 441.15 51.94 442.94 52.38 444.56 52.81 446.18 53.17 447.14 53.52 448.10 54.09 449.74 54.67 451.38 55.20 452.66 55.74 453.93 56.33 455.14 56.91 456.35 57.58 457.22 58.24 458.08 59.18 459.00 60.13 459.92 61.01 460.64 61.90 461.37 63.07 461.97 64.25 462.57 65.30 462.86 66.35 463.15 67.48 463.38 68.62 463.62 70.07 463.83 71.51 464.04 72.59 464.15 73.66 464.25 75.00 464.38 76.34 464.51 77.42 464.51 78.51 464.51 79.79 464.51 81.07 464.51 82.22 464.51 83.36 464.51 84.91 464.51 86.45 464.51 87.91 464.51 89.36 464.51 90.81 464.50 92.25 464.49 93.65 464.43 95.04 464.38 96.86 464.26 98.67 464.15 100.12 464.14 101.57 464.14 102.97 464.11 104.37 464.09 105.85 463.94 107.33 463.78 108.93 463.77 110.52 463.77 111.70 463.75 112.87 463.74 114.96 463.65 117.04 463.56 118.20 463.39 119.35 463.22 120.42 463.06 121.50 462.91 123.03 462.74 124.56 462.57 125.97 462.40 127.38 462.23 129.05 461.93 130.73 461.64 131.89 461.50 133.05 461.35 134.10 461.21 135.15 461.06 136.17 460.90 137.18 460.73 138.20 460.43 139.21 460.14 140.59 459.77 141.97 459.41 143.27 459.01 144.57 458.62 145.68 458.16 146.79 457.71 147.98 457.38 149.17 457.05 150.18 456.78 151.18 456.50 152.37 456.33 153.55 456.17 154.85 455.90 156.15 455.62 157.56 455.48 158.97 455.33 159.98 455.20 160.99 455.07 162.29 454.93 163.60 454.80 164.82 454.80 166.03 454.81 167.49 454.65 168.95 454.49 170.30 454.34 171.65 454.19 173.29 454.12 174.94 454.05 176.19 453.92 177.44 453.79 178.79 453.77 180.14 453.75 181.53 453.69 182.93 453.64 184.59 453.51 186.25 453.38 188.96 453.32 191.66 453.27 193.29 453.13 194.92 452.99 196.27 452.99 197.62 452.99 199.35 452.99 201.07 452.98 202.74 452.98 204.42 452.98 205.83 452.98 207.23 452.98 208.24 452.98 209.24 452.97 210.91 452.94 212.58 452.91 213.66 452.85 214.75 452.80 216.15 452.67 217.55 452.53 218.83 452.53 220.12 452.52 221.35 452.50 222.58 452.47 223.68 452.43 224.78 452.39 225.85 452.26 226.93 452.13 228.21 452.10 229.49 452.07 230.73 451.99 231.96 451.92 234.15 451.58 236.35 451.24 238.04 451.02 239.73 450.79 240.77 450.63 241.82 450.48 243.49 450.26 245.16 450.03 246.96 449.83 248.76 449.63 250.80 449.44 252.84 449.24 253.97 449.11 255.10 448.98 256.15 448.96 257.19 448.94 258.31 448.89 259.42 448.84 260.87 448.71 262.31 448.58 264.14 448.55 265.96 448.53 267.11 448.48 268.26 448.43 269.43 448.28 270.61 448.14 271.76 448.09 272.91 448.04 274.09 447.91 275.27 447.78 277.37 447.72 279.48 447.65 280.61 447.52 281.73 447.40 282.77 447.39 283.81 447.38 284.89 447.36 285.97 447.33 287.14 447.29 288.31 447.24 289.53 447.11 290.75 446.97 292.02 446.95 293.29 446.93 294.48 446.87 295.67 446.82 297.91 446.64 300.14 446.45 301.42 446.38 302.70 446.30 304.11 446.11 305.51 445.91 306.63 445.76 307.75 445.61 308.79 445.56 309.84 445.50 311.48 445.36 313.13 445.22 314.52 445.22 315.92 445.22 317.41 445.22 318.91 445.22 320.65 445.22 322.38 445.22 324.20 445.22 326.02 445.22 328.03 445.22 330.05 445.22 331.99 445.22 333.94 445.22 337.16 445.22 340.38 445.22 344.58 445.22 348.78 445.22 351.28 445.22 353.77 445.22 356.28 445.22 358.79 445.22 361.30 445.21 363.82 445.21 366.38 445.21 368.93 445.20 371.57 445.19 374.20 445.18 377.03 445.15 379.85 445.13 382.49 445.06 385.13 445.00 387.95 444.86 390.78 444.71 393.56 444.37 396.34 444.02 398.89 443.61 401.44 443.19 404.18 442.57 406.91 441.95 409.37 441.27 411.83 440.60 414.27 439.78 416.71 438.96 419.31 437.67 421.91 436.39 424.75 434.81 427.59 433.23 430.61 431.56 433.64 429.88 436.58 428.02 439.52 426.16 442.23 424.30 444.94 422.44 447.72 420.46 450.51 418.48 452.57 416.95 454.64 415.42 456.28 414.24 457.91 413.07 460.27 412.07 462.62 411.07 462.62 409.88 462.61 408.69 462.33 407.66 462.04 406.64 461.56 405.66 461.08 404.69 460.53 403.69 459.98 402.70 459.28 401.86 458.59 401.03 457.81 400.17 457.02 399.30 456.08 398.48 455.14 397.65 454.27 397.11 453.40 396.56 452.50 395.88 451.60 395.21 450.68 394.50 449.77 393.80 448.44 393.06 447.10 392.31 445.64 391.52 444.18 390.73 442.72 390.26 441.26 389.80 440.04 389.45 438.82 389.11 437.60 388.77 436.37 388.43 435.10 388.09 433.83 387.75 432.44 387.40 431.05 387.06 430.08 386.82 429.10 386.57 427.50 386.36 425.90 386.15 424.74 386.03 423.59 385.92 422.26 385.74 420.92 385.57 419.29 385.40 417.67 385.24 416.16 385.24 414.66 385.24 412.93 385.24 411.20 385.24 410.02 385.24 408.84 385.24 407.10 385.24 405.37 385.24 403.62 385.24 401.87 385.24 400.40 385.25 398.93 385.25 397.58 385.26 396.23 385.27 395.14 385.31 394.05 385.36 392.41 385.47 390.78 385.57 389.76 385.57 388.73 385.57 387.69 385.57 386.65 385.57 385.55 385.57 384.45 385.57 383.22 385.57 381.99 385.57 380.89 385.57 379.78 385.57 378.53 385.57 377.29 385.57 375.34 385.57 373.39 385.57 372.18 385.57 370.97 385.57 369.11 385.57 367.25 385.57 365.65 385.57 364.06 385.57 362.57 385.58 361.08 385.58 359.36 385.59 357.64 385.59 355.86 385.61 354.08 385.63 352.65 385.67 351.22 385.71 348.85 385.80 346.49 385.89 343.64 386.11 340.80 386.33 339.05 386.50 337.30 386.67 335.63 386.73 333.96 386.80 332.11 386.96 330.26 387.13 328.88 387.16 327.50 387.18 326.06 387.24 324.61 387.30 323.24 387.46 321.87 387.62 320.66 387.68 319.44 387.74 318.13 387.91 316.82 388.07 315.34 388.16 313.86 388.24 312.41 388.47 310.96 388.70 309.36 388.93 307.76 389.17 306.25 389.39 304.75 389.62 303.41 389.83 302.08 390.04 300.37 390.26 298.66 390.47 297.36 390.63 296.06 390.79 295.01 390.85 293.95 390.92 292.62 391.08 291.28 391.24 290.11 391.31 288.94 391.38 286.05 391.58 283.16 391.77 281.88 391.83 280.59 391.88 279.14 392.01 277.69 392.15 276.29 392.15 274.88 392.16 273.83 392.18 272.78 392.20 271.64 392.24 270.51 392.28 269.21 392.36 267.91 392.45 266.28 392.70 264.65 392.94 262.53 392.94 260.41 392.94 258.99 392.94 257.57 392.94 256.02 392.94 254.46 392.94 253.07 392.94 251.68 392.94 249.39 392.94 247.10 392.94 245.72 392.94 244.34 392.94 242.08 392.94 239.82 392.94 236.76 392.95 233.70 392.95 231.18 392.96 228.67 392.97 226.13 392.98 223.59 393.00 220.98 393.04 218.37 393.08 214.49 393.18 210.60 393.27 206.06 393.50 201.53 393.73 196.38 393.81 191.23 393.89 186.18 394.08 181.12 394.27 175.26 394.73 169.41 395.18 163.77 395.18 158.13 395.18 148.87 395.18 139.61 395.18 131.04 395.18 122.46 395.18 115.89 395.18 109.31 395.18 103.73 395.18 98.16 395.18 92.99 395.18 87.82 395.18 83.62 395.18 79.43 395.18 75.76 395.18 72.10 395.18 68.89 394.19 65.69 393.19 65.69 393.18 Z" data-drauu_index="10"></path>
</svg>